<?xml version="1.0" encoding="UTF-8"?>
<svg width="1091px" height="352px" viewBox="0 0 1091 352" version="1.1" xmlns="http://www.w3.org/2000/svg" xmlns:xlink="http://www.w3.org/1999/xlink">
    <title>cuminologo2023</title>
    <g id="Page-1" stroke="none" stroke-width="1" fill="none" fill-rule="evenodd">
        <g id="cuminologo2023" transform="translate(0.406687, 0.584419)" fill="#A2897B">
            <path d="M382.663613,167.803481 C354.002613,312.137481 396.585613,318.030481 357.552613,314.503481 C339.669613,312.870481 330.616613,289.324481 326.093613,262.911481 C294.456613,295.804481 261.419613,312.054481 252.023613,307.739481 C173.511613,265.532481 284.104613,50.2664807 301.842613,57.0034807 C319.562613,63.7614807 296.769613,122.012481 296.769613,122.012481 C205.600613,385.409481 316.183613,208.127481 316.183613,206.433481 C318.165613,199.710481 320.149613,193.304481 322.097613,187.178481 C358.475613,73.5444807 389.713613,63.4134807 391.323613,88.2404807 C393.549613,117.208481 389.966613,143.823481 382.663613,167.803481" id="Fill-16"></path>
            <path d="M707.941013,134.811781 C707.941013,134.811781 707.304013,96.1857807 689.574013,117.084781 C671.843013,137.976781 636.388013,307.032781 685.143013,284.873781 C716.802013,269.041781 707.941013,134.811781 707.941013,134.811781" id="Fill-18"></path>
            <path d="M698.442913,80.9914807 C690.283913,83.1814807 673.115913,70.8664807 690.842913,65.1684807 C708.567913,59.4654807 724.396913,74.0274807 698.442913,80.9914807" id="Fill-20"></path>
            <path d="M816.929213,116.479681 C816.929213,116.479681 827.057213,83.5126807 805.952213,81.8216807 C784.848213,80.1316807 729.969213,288.657681 760.364213,310.604681 C777.245213,323.264681 794.976213,279.369681 798.351213,245.594681 C801.730213,211.830681 830.429213,130.786681 859.136213,139.230681 C887.834213,147.674681 854.915213,300.709681 899.661213,312.836681 C924.984213,320.737681 912.322213,265.015681 912.322213,265.015681 C912.322213,265.015681 952.003213,19.4396807 816.929213,116.479681" id="Fill-22"></path>
            <path d="M1009.41171,325.778581 C956.225713,309.736581 913.163713,178.043581 1003.50171,105.434581 C1003.50171,105.434581 1058.36471,37.0065807 1082.85671,110.899581 C1107.32571,184.793581 1062.59571,341.819581 1009.41171,325.778581" id="Fill-24"></path>
            <path d="M471.535713,117.793181 C471.535713,117.793181 480.822713,78.1151807 456.336713,84.0261807 C431.856713,89.9321807 391.336713,296.771181 430.166713,305.210181 C461.401713,312.802181 465.624713,206.434181 465.624713,206.434181 C465.624713,206.434181 494.330713,111.887181 512.901713,159.164181 C531.469713,206.434181 490.107713,279.040181 525.568713,300.985181 C550.889713,315.341181 546.673713,176.047181 551.738713,169.290181 C556.804713,162.541181 587.191713,127.079181 582.973713,285.797181 C580.437713,325.472181 618.424713,328.773181 619.272713,305.597181 C620.120713,282.412181 631.094713,89.9321807 544.979713,132.985181 C529.791713,104.285181 509.521713,106.213181 471.535713,117.793181" id="Fill-26"></path>
            <path d="M196.841313,105.163281 C180.062313,98.3292807 187.556313,83.4452807 187.556313,83.4452807 C187.556313,83.4452807 196.776313,52.2202807 171.426313,49.3552807 C164.419313,48.5632807 156.892313,52.4652807 149.634313,58.5802807 C126.257313,81.2332807 107.681313,118.910281 103.398313,127.956281 C102.771313,129.236281 102.458313,129.961281 102.458313,129.961281 C94.2113133,148.056281 84.5373133,169.092281 73.2473133,193.576281 C-7.14768674,367.693281 122.007313,271.443281 128.986313,260.668281 C189.147313,168.227281 196.741313,213.187281 196.741313,213.187281 C201.161313,268.892281 80.8413133,360.101281 43.5143133,349.951281 C-71.1106867,314.475281 74.5213133,92.2482807 96.0723133,52.3642807 C112.164313,22.5592807 137.446313,-0.201719341 158.721313,0.0062806586 L158.787313,0.0062806586 C243.399313,-0.993719341 227.924313,117.771281 196.841313,105.163281" id="Fill-28"></path>
        </g>
    </g>
</svg>